<svg version="1.1" id="Users" xmlns="http://www.w3.org/2000/svg" xmlns:xlink="http://www.w3.org/1999/xlink" x="0px" y="0px"
	 viewBox="0 0 34 34" style="enable-background:new 0 0 34 34;" xml:space="preserve">
<g>
	<g>
		<path d="M31,33H3c-1.1,0-2-0.9-2-2v-2c0-0.4,0.2-0.7,0.5-0.9l9.8-5.3C8,19.3,8,14.2,8,14V8c0-0.1,0-0.1,0-0.2C8.7,3.7,13.2,1,17,1
			c3.8,0,8.3,2.7,9,6.8c0,0.1,0,0.1,0,0.2v6c0,0.2,0,5.2-3.3,8.8l9.8,5.3c0.3,0.2,0.5,0.5,0.5,0.9v2C33,32.2,32.2,33,31,33z M3,29.6
			V31h28v-1.4l-10.5-5.7c-0.3-0.2-0.5-0.5-0.5-0.8c0-0.3,0.1-0.7,0.4-0.9c3.6-2.9,3.6-8.2,3.6-8.2V8.1C23.5,5.4,20.2,3,17,3
			c-3.2,0-6.5,2.4-7,5.1V14c0,0.1,0.1,5.4,3.6,8.2c0.3,0.2,0.4,0.5,0.4,0.9c0,0.3-0.2,0.6-0.5,0.8L3,29.6z"/>
	</g>
</g>
</svg>
