<svg xmlns="http://www.w3.org/2000/svg" xmlns:xlink="http://www.w3.org/1999/xlink" preserveAspectRatio="xMidYMid" width="32.438" height="31.97" viewBox="0 0 32.438 31.97">
  <path d="M25.886,31.970 C22.415,31.970 16.018,27.959 9.968,21.989 C6.458,18.527 3.554,14.881 1.788,11.722 C-0.195,8.175 -0.526,5.595 0.830,4.258 L5.411,0.236 C5.614,0.059 5.881,-0.031 6.152,-0.014 C6.423,0.004 6.675,0.128 6.852,0.331 L12.964,7.328 C13.250,7.656 13.290,8.128 13.063,8.499 L10.403,12.826 L19.410,21.713 L23.799,19.088 C24.173,18.864 24.650,18.902 24.984,19.184 L32.078,25.182 C32.283,25.355 32.410,25.604 32.429,25.870 C32.448,26.137 32.358,26.400 32.179,26.600 L28.173,31.095 C28.159,31.110 28.116,31.154 28.101,31.169 C27.562,31.701 26.817,31.970 25.886,31.970 ZM2.285,5.649 C1.887,6.120 1.802,7.607 3.562,10.756 C5.239,13.755 8.023,17.243 11.401,20.576 C17.652,26.744 23.420,29.971 25.886,29.971 C26.143,29.971 26.487,29.934 26.668,29.756 L29.979,26.041 L24.222,21.173 L19.781,23.828 C19.382,24.068 18.869,24.005 18.540,23.680 L8.408,13.685 C8.078,13.360 8.016,12.854 8.258,12.460 L10.948,8.083 L5.989,2.404 L2.285,5.649 Z" />
</svg>
