<svg xmlns="http://www.w3.org/2000/svg" xmlns:xlink="http://www.w3.org/1999/xlink" preserveAspectRatio="xMidYMid" width="31.906" height="17.91" viewBox="0 0 31.906 17.91">
  <path d="M30.907,9.937 L3.401,9.937 L9.675,16.199 C10.065,16.587 10.065,17.217 9.675,17.606 C9.480,17.800 9.225,17.897 8.970,17.897 C8.715,17.897 8.460,17.800 8.265,17.606 L0.289,9.646 C0.197,9.554 0.123,9.444 0.073,9.322 C0.022,9.200 -0.004,9.071 -0.004,8.941 C-0.004,8.941 -0.004,8.941 -0.004,8.941 C-0.004,8.940 -0.004,8.939 -0.004,8.938 C-0.003,8.809 0.023,8.682 0.073,8.561 C0.123,8.439 0.197,8.329 0.289,8.237 L8.265,0.277 C8.655,-0.112 9.286,-0.112 9.675,0.277 C10.065,0.665 10.065,1.295 9.675,1.684 L3.400,7.946 L30.907,7.946 C31.458,7.946 31.904,8.392 31.904,8.941 C31.904,9.491 31.458,9.937 30.907,9.937 Z" />
</svg>
