<?xml version="1.0" encoding="utf-8"?>
<!-- Generator: Adobe Illustrator 23.0.3, SVG Export Plug-In . SVG Version: 6.00 Build 0)  -->
<svg version="1.1" id="Layer_1" xmlns="http://www.w3.org/2000/svg" xmlns:xlink="http://www.w3.org/1999/xlink" x="0px" y="0px"
	 viewBox="0 0 32 18" style="enable-background:new 0 0 32 18;" xml:space="preserve">
<style type="text/css">
	.st0{fill-rule:evenodd;clip-rule:evenodd;fill:#FFFFFF;}
</style>
<path class="st0" d="M31.9,9L31.9,9L31.9,9c0,0.1,0,0.3-0.1,0.4c0,0.1-0.1,0.2-0.2,0.3l-8,8c-0.2,0.2-0.5,0.3-0.7,0.3
	c-0.3,0-0.5-0.1-0.7-0.3c-0.4-0.4-0.4-1,0-1.4l6.3-6.3H1c-0.6,0-1-0.4-1-1c0-0.5,0.4-1,1-1h27.5l-6.3-6.3c-0.4-0.4-0.4-1,0-1.4
	c0.4-0.4,1-0.4,1.4,0l8,8c0.1,0.1,0.2,0.2,0.2,0.3C31.9,8.7,31.9,8.9,31.9,9z"/>
</svg>
