<svg xmlns="http://www.w3.org/2000/svg" xmlns:xlink="http://www.w3.org/1999/xlink" preserveAspectRatio="xMidYMid" width="31.91" height="27.88" viewBox="0 0 31.91 27.88">
  <path d="M31.864,11.165 L27.874,27.138 C27.763,27.582 27.364,27.894 26.906,27.894 L4.964,27.894 C4.506,27.894 4.107,27.582 3.996,27.138 L0.006,11.165 C-0.068,10.867 -0.000,10.552 0.188,10.310 C0.377,10.069 0.668,9.928 0.975,9.928 L6.978,9.928 C6.983,9.843 6.981,9.758 7.009,9.674 L10.002,0.690 C10.176,0.167 10.741,-0.115 11.263,0.059 C11.786,0.232 12.068,0.796 11.895,1.318 L9.027,9.928 L22.843,9.928 L19.975,1.318 C19.802,0.796 20.084,0.232 20.607,0.059 C21.128,-0.115 21.694,0.167 21.868,0.690 L24.861,9.674 C24.889,9.758 24.887,9.843 24.892,9.928 L30.895,9.928 C31.202,9.928 31.493,10.069 31.681,10.310 C31.870,10.552 31.938,10.867 31.864,11.165 ZM2.251,11.920 L5.743,25.901 L26.127,25.901 L29.619,11.920 L2.251,11.920 Z" />
</svg>
