<svg version="1.1" id="Capa_1" xmlns="http://www.w3.org/2000/svg" xmlns:xlink="http://www.w3.org/1999/xlink" x="0px" y="0px"
	 viewBox="0 0 20 20" style="enable-background:new 0 0 20 20;" xml:space="preserve">
<path d="M16,18.5c-0.9,0-1.6-0.7-1.6-1.6s0.7-1.6,1.6-1.6c0.9,0,1.6,0.7,1.6,1.6S16.9,18.5,16,18.5z M6.8,18.5
	c-0.9,0-1.6-0.7-1.6-1.6s0.7-1.6,1.6-1.6c0.9,0,1.6,0.7,1.6,1.6S7.7,18.5,6.8,18.5z M5.7,13.4c-0.3,0-0.5-0.2-0.5-0.4L2.7,2.7h-2
	c-0.3,0-0.6-0.3-0.6-0.6c0-0.3,0.3-0.6,0.6-0.6h2.5c0.3,0,0.5,0.2,0.5,0.4l0.7,3h14.8c0.2,0,0.3,0.1,0.4,0.2
	c0.1,0.1,0.1,0.3,0.1,0.5L17.9,13c-0.1,0.3-0.3,0.4-0.5,0.4H5.7z M6.1,12.3h10.8l1.5-6.2H4.6L6.1,12.3z"/>
</svg>
