<?xml version="1.0" encoding="utf-8"?>
<!-- Generator: Adobe Illustrator 23.0.3, SVG Export Plug-In . SVG Version: 6.00 Build 0)  -->
<svg version="1.1" id="Capa_1" xmlns="http://www.w3.org/2000/svg" xmlns:xlink="http://www.w3.org/1999/xlink" x="0px" y="0px"
	 viewBox="0 0 97.4 97.4" style="enable-background:new 0 0 97.4 97.4;" xml:space="preserve">
<style type="text/css">
	.st0{fill:#FFFFFF;}
</style>
<g>
	<path class="st0" d="M12.6,0.2h72.1c6.8,0,12.4,5.1,12.4,12.4v71.9c0,7.4-5.6,12.4-12.4,12.4H12.6c-6.8,0-12.5-5.1-12.5-12.4V12.6
		C0.2,5.3,5.8,0.2,12.6,0.2L12.6,0.2z M70.9,10.9c-2.4,0-4.4,2-4.4,4.4v10.4c0,2.4,2,4.4,4.4,4.4h11c2.4,0,4.4-2,4.4-4.4V15.3
		c0-2.4-2-4.4-4.4-4.4H70.9L70.9,10.9z M86.2,41.1h-8.5c0.8,2.6,1.2,5.4,1.2,8.3c0,16.1-13.5,29.1-30.2,29.1
		c-16.7,0-30.1-13-30.1-29.1c0-2.9,0.4-5.7,1.2-8.3H11v40.9c0,2.1,1.7,3.8,3.9,3.8h67.5c2.1,0,3.9-1.7,3.9-3.8L86.2,41.1L86.2,41.1z
		 M48.8,29.5c-10.8,0-19.5,8.4-19.5,18.8S38,67.2,48.8,67.2c10.8,0,19.5-8.4,19.5-18.8S59.5,29.5,48.8,29.5z"/>
</g>
</svg>
