<?xml version="1.0" encoding="UTF-8" standalone="no"?>
<!DOCTYPE svg PUBLIC "-//W3C//DTD SVG 1.1//EN" "http://www.w3.org/Graphics/SVG/1.1/DTD/svg11.dtd">
<svg width="100%" height="100%" viewBox="0 0 32 22" version="1.1" xmlns="http://www.w3.org/2000/svg" xmlns:xlink="http://www.w3.org/1999/xlink" xml:space="preserve" xmlns:serif="http://www.serif.com/" style="fill-rule:evenodd;clip-rule:evenodd;stroke-linejoin:round;stroke-miterlimit:1.41421;">
    <g transform="matrix(1,0,0,1,-266,-901)">
        <path d="M297,913C296.448,913 296,912.552 296,912C296,910.219 291.497,903 282,903C272.503,903 268,910.219 268,912C268,912.552 267.552,913 267,913C266.448,913 266,912.552 266,912C266,908.808 271.607,901 282,901C292.393,901 298,908.808 298,912C298,912.552 297.552,913 297,913Z"/>
    </g>
    <g transform="matrix(1,0,0,1,-266,-901)">
        <path d="M282,923C271.607,923 266,915.192 266,912C266,911.448 266.448,911 267,911C267.552,911 268,911.448 268,912C268,913.781 272.503,921 282,921C291.497,921 296,913.781 296,912C296,911.448 296.448,911 297,911C297.552,911 298,911.448 298,912C298,915.192 292.393,923 282,923Z"/>
    </g>
    <g transform="matrix(1,0,0,1,-266,-901)">
        <path d="M282,918C278.691,918 276,915.308 276,912C276,908.691 278.691,906 282,906C285.309,906 288,908.691 288,912C288,915.308 285.309,918 282,918ZM282,908C279.794,908 278,909.795 278,912C278,914.205 279.794,916 282,916C284.206,916 286,914.205 286,912C286,909.795 284.206,908 282,908Z"/>
    </g>
</svg>
